<?xml version="1.0" encoding="UTF-8"?>
<svg xmlns="http://www.w3.org/2000/svg" xmlns:xlink="http://www.w3.org/1999/xlink" width="44px" height="45px" viewBox="0 0 44 45" version="1.1">
<g id="surface1">
<path style=" stroke:none;fill-rule:nonzero;fill:rgb(0%,0%,0%);fill-opacity:1;" d="M 20.496094 5.511719 C 17.839844 5.695312 15.3125 6.304688 13.5625 7.179688 C 13.027344 7.445312 12.839844 7.660156 12.519531 8.320312 C 12.304688 8.769531 12.253906 9 12.230469 9.652344 C 12.203125 10.082031 12.230469 10.605469 12.28125 10.820312 C 12.324219 11.027344 12.347656 11.214844 12.339844 11.234375 C 12.273438 11.300781 11.746094 9.875 11.609375 9.257812 L 11.464844 8.570312 L 10.921875 9.144531 C 10.628906 9.464844 10.132812 10.109375 9.832031 10.5625 C 9.523438 11.027344 9.222656 11.457031 9.152344 11.507812 C 8.945312 11.679688 8.996094 11.738281 9.382812 11.800781 C 10.242188 11.9375 11.601562 12.839844 12.53125 13.878906 L 12.984375 14.382812 L 11.480469 14.488281 C 8.628906 14.675781 7.683594 15.097656 7.699219 16.1875 C 7.699219 16.933594 8.136719 17.457031 9.753906 18.667969 C 10.242188 19.039062 8.835938 18.542969 8.164062 18.113281 C 7.476562 17.664062 6.882812 17.105469 6.472656 16.515625 L 6.144531 16.042969 L 6.074219 16.453125 C 5.988281 16.96875 6.136719 18.15625 6.359375 18.746094 C 6.667969 19.5625 6.875 19.675781 8.429688 19.835938 C 8.929688 19.890625 9.460938 19.957031 9.597656 20 C 9.855469 20.078125 9.867188 20.070312 9.917969 19.761719 C 9.941406 19.589844 9.96875 19.324219 9.96875 19.167969 C 9.96875 18.617188 10.242188 17.554688 10.542969 16.925781 C 11.09375 15.765625 11.917969 15.148438 13.113281 14.984375 L 13.550781 14.933594 L 13.863281 15.347656 C 14.238281 15.851562 15.210938 16.796875 15.726562 17.148438 C 16.226562 17.484375 17.1875 17.972656 17.246094 17.914062 C 17.273438 17.886719 17.160156 17.714844 16.988281 17.519531 C 16.65625 17.125 16.105469 16.144531 16.226562 16.144531 C 16.269531 16.144531 16.386719 16.25 16.507812 16.367188 C 16.800781 16.675781 18.296875 17.683594 19.207031 18.171875 L 19.980469 18.59375 L 21.527344 18.582031 C 23.390625 18.574219 24.800781 18.464844 28.316406 18.070312 C 31.273438 17.734375 33.789062 17.613281 34.761719 17.757812 C 35.089844 17.8125 35.363281 17.84375 35.378906 17.835938 C 35.414062 17.800781 34.820312 15.15625 34.597656 14.359375 C 32.984375 8.628906 30.257812 5.96875 25.566406 5.503906 C 24.535156 5.410156 21.992188 5.410156 20.496094 5.511719 Z M 20.496094 5.511719 "/>
<path style=" stroke:none;fill-rule:nonzero;fill:rgb(0%,0%,0%);fill-opacity:1;" d="M 30.679688 18 C 29.105469 18.1875 27.714844 18.515625 25.617188 19.183594 C 24.835938 19.441406 24.054688 19.675781 23.890625 19.707031 C 23.617188 19.769531 23.605469 19.777344 23.789062 19.847656 C 23.890625 19.890625 24.335938 19.984375 24.777344 20.0625 C 25.660156 20.222656 27.320312 20.25 31.667969 20.179688 C 34.488281 20.136719 34.796875 20.171875 35.648438 20.671875 C 35.980469 20.859375 36.015625 20.867188 35.980469 20.730469 C 35.957031 20.636719 35.886719 20.351562 35.835938 20.078125 C 35.75 19.65625 35.679688 19.539062 35.277344 19.152344 C 34.46875 18.394531 33.464844 18.050781 31.925781 18 C 31.410156 17.984375 30.84375 17.984375 30.679688 18 Z M 30.679688 18 "/>
<path style=" stroke:none;fill-rule:nonzero;fill:rgb(0%,0%,0%);fill-opacity:1;" d="M 21.125 20.328125 C 21.183594 20.351562 21.261719 20.34375 21.285156 20.320312 C 21.320312 20.292969 21.269531 20.265625 21.175781 20.277344 C 21.082031 20.277344 21.054688 20.300781 21.125 20.328125 Z M 21.125 20.328125 "/>
<path style=" stroke:none;fill-rule:nonzero;fill:rgb(0%,0%,0%);fill-opacity:1;" d="M 25.636719 20.84375 C 24.957031 20.859375 24.40625 20.902344 24.40625 20.945312 C 24.40625 21.003906 25.023438 21.691406 27.011719 23.839844 C 28.753906 25.71875 29.613281 26.972656 29.871094 28.023438 C 30.007812 28.5625 30.007812 28.625 29.863281 28.984375 C 29.675781 29.480469 29.21875 29.808594 28.625 29.867188 C 27.59375 29.960938 27 28.964844 27.507812 27.988281 C 27.601562 27.789062 27.664062 27.617188 27.636719 27.59375 C 27.550781 27.507812 26.195312 27.910156 25.574219 28.21875 C 24.320312 28.835938 23.425781 29.78125 23.074219 30.839844 C 22.953125 31.191406 22.9375 31.527344 22.960938 32.703125 C 22.996094 33.949219 23.023438 34.207031 23.203125 34.652344 C 23.453125 35.296875 24.105469 35.972656 24.691406 36.199219 L 25.101562 36.351562 L 24.304688 36.78125 C 22.953125 37.496094 21.8125 37.855469 19.730469 38.207031 C 19.171875 38.300781 18.691406 38.394531 18.675781 38.421875 C 18.597656 38.5 18.90625 39.375 19.113281 39.683594 C 19.285156 39.941406 19.421875 40.019531 19.953125 40.171875 C 21.742188 40.707031 24.527344 40.585938 26.625 39.882812 C 27.871094 39.46875 29.289062 38.578125 30.121094 37.691406 C 30.523438 37.253906 30.523438 37.253906 30.464844 36.816406 C 30.34375 36 30.300781 36.070312 31.109375 35.855469 C 32.964844 35.355469 34.109375 34.789062 35.011719 33.929688 C 35.800781 33.175781 36.34375 32.324219 36.679688 31.335938 C 37.011719 30.316406 37.125 29.480469 37.125 28.054688 C 37.125 26.167969 36.558594 22.871094 36.171875 22.441406 C 35.578125 21.796875 34.332031 21.253906 32.8125 20.988281 C 31.996094 20.84375 28.445312 20.773438 25.636719 20.84375 Z M 26.152344 29.578125 C 25.703125 30.089844 25.28125 30.804688 25.035156 31.5 C 24.734375 32.308594 24.777344 33.398438 25.121094 34.109375 C 25.738281 35.382812 26.941406 35.777344 29.503906 35.5625 C 30.222656 35.511719 31.039062 35.441406 31.324219 35.417969 L 31.839844 35.375 L 31.324219 35.554688 C 30.628906 35.785156 28.902344 36.128906 28.050781 36.199219 C 27.207031 36.257812 26.023438 36.121094 25.386719 35.886719 C 23.890625 35.332031 23.167969 33.878906 23.589844 32.265625 C 23.777344 31.550781 24.019531 31.121094 24.570312 30.539062 C 24.992188 30.089844 26.21875 29.199219 26.410156 29.199219 C 26.453125 29.199219 26.332031 29.371094 26.152344 29.578125 Z M 26.152344 29.578125 "/>
<path style=" stroke:none;fill-rule:nonzero;fill:rgb(0%,0%,0%);fill-opacity:1;" d="M 19.636719 20.929688 C 18.183594 21.246094 16.148438 21.863281 16.054688 22.019531 C 15.925781 22.214844 15.984375 22.664062 16.183594 22.886719 L 16.371094 23.101562 L 17.53125 22.628906 C 18.167969 22.371094 19.078125 22.0625 19.550781 21.933594 C 20.316406 21.726562 20.511719 21.710938 21.3125 21.753906 C 21.8125 21.789062 22.59375 21.898438 23.058594 22.011719 C 23.511719 22.121094 23.890625 22.207031 23.890625 22.191406 C 23.890625 22.183594 23.597656 21.984375 23.246094 21.761719 C 22.285156 21.167969 21.355469 20.867188 20.496094 20.875 C 20.117188 20.886719 19.730469 20.902344 19.636719 20.929688 Z M 19.636719 20.929688 "/>
<path style=" stroke:none;fill-rule:nonzero;fill:rgb(0%,0%,0%);fill-opacity:1;" d="M 9.566406 21.304688 C 9.394531 21.476562 9.4375 22.035156 9.632812 22.507812 C 9.8125 22.921875 9.996094 23.09375 9.910156 22.765625 C 9.847656 22.515625 10.027344 22.242188 10.269531 22.242188 C 10.382812 22.242188 10.914062 22.398438 11.445312 22.59375 C 11.980469 22.785156 12.488281 22.964844 12.5625 22.988281 C 12.898438 23.09375 12.8125 22.078125 12.476562 21.941406 C 11.144531 21.390625 9.761719 21.089844 9.566406 21.304688 Z M 9.566406 21.304688 "/>
<path style=" stroke:none;fill-rule:nonzero;fill:rgb(0%,0%,0%);fill-opacity:1;" d="M 18.003906 23.566406 C 17.601562 23.746094 17.367188 24.054688 17.308594 24.492188 C 17.238281 25 17.4375 25.121094 17.6875 24.699219 C 17.925781 24.292969 18.375 24.113281 19.15625 24.097656 C 19.695312 24.089844 19.800781 24.113281 19.773438 24.21875 C 19.6875 24.507812 19.765625 24.871094 19.945312 25.007812 C 20.203125 25.222656 20.425781 25.195312 20.683594 24.9375 C 20.855469 24.765625 20.890625 24.664062 20.847656 24.464844 C 20.796875 24.207031 20.804688 24.207031 21.125 24.269531 C 21.425781 24.320312 22.515625 24.578125 22.910156 24.691406 C 23.03125 24.734375 23.109375 24.699219 23.144531 24.613281 C 23.203125 24.464844 22.816406 24.261719 21.792969 23.910156 C 20.53125 23.46875 18.605469 23.296875 18.003906 23.566406 Z M 18.003906 23.566406 "/>
<path style=" stroke:none;fill-rule:nonzero;fill:rgb(0%,0%,0%);fill-opacity:1;" d="M 10.828125 23.695312 C 10.707031 23.726562 10.449219 23.855469 10.269531 23.976562 C 10.082031 24.097656 9.839844 24.21875 9.738281 24.25 C 9.625 24.285156 9.539062 24.371094 9.539062 24.449219 C 9.539062 24.5625 9.625 24.578125 10.097656 24.535156 C 10.414062 24.5 10.640625 24.519531 10.613281 24.550781 C 10.542969 24.671875 10.664062 24.90625 10.792969 24.90625 C 10.863281 24.90625 10.914062 24.828125 10.914062 24.742188 C 10.914062 24.355469 10.992188 24.304688 11.566406 24.304688 C 12.101562 24.304688 12.203125 24.355469 12.03125 24.527344 C 11.988281 24.570312 11.980469 24.714844 12.015625 24.863281 C 12.074219 25.066406 12.132812 25.128906 12.347656 25.144531 C 12.554688 25.164062 12.640625 25.128906 12.71875 24.992188 C 12.769531 24.886719 12.796875 24.75 12.769531 24.679688 C 12.710938 24.519531 12.796875 24.527344 12.984375 24.699219 C 13.285156 24.964844 13.441406 24.605469 13.183594 24.234375 C 12.949219 23.898438 12.410156 23.683594 11.695312 23.652344 C 11.335938 23.632812 10.949219 23.652344 10.828125 23.695312 Z M 10.828125 23.695312 "/>
<path style=" stroke:none;fill-rule:nonzero;fill:rgb(0%,0%,0%);fill-opacity:1;" d="M 10.585938 28.347656 C 10.167969 29.328125 10.097656 29.652344 10.097656 30.617188 C 10.097656 31.527344 10.113281 31.59375 10.398438 32.160156 C 10.75 32.875 11.144531 33.183594 11.875 33.335938 C 12.152344 33.398438 12.390625 33.421875 12.417969 33.398438 C 12.445312 33.371094 12.289062 32.984375 12.082031 32.539062 C 11.636719 31.613281 11.34375 30.632812 11.035156 29.113281 C 10.914062 28.519531 10.800781 28.023438 10.785156 28.003906 C 10.757812 27.988281 10.671875 28.140625 10.585938 28.347656 Z M 10.585938 28.347656 "/>
<path style=" stroke:none;fill-rule:nonzero;fill:rgb(0%,0%,0%);fill-opacity:1;" d="M 9.417969 29.042969 C 8.765625 30.167969 8.78125 32.4375 9.453125 33.757812 C 9.867188 34.558594 10.921875 35.441406 11.9375 35.8125 C 12.390625 35.984375 13.027344 36.164062 13.636719 36.285156 L 13.914062 36.335938 L 13.371094 35.148438 L 12.832031 33.964844 L 12.238281 33.992188 C 11.171875 34.035156 10.140625 33.648438 9.667969 33.019531 C 8.9375 32.066406 8.859375 30.367188 9.488281 29.113281 C 9.753906 28.589844 9.710938 28.546875 9.417969 29.042969 Z M 9.417969 29.042969 "/>
<path style=" stroke:none;fill-rule:nonzero;fill:rgb(0%,0%,0%);fill-opacity:1;" d="M 14.4375 30.324219 C 13.894531 30.367188 13.355469 30.425781 13.234375 30.453125 L 13.019531 30.503906 L 13.21875 30.582031 C 13.914062 30.847656 16.191406 30.839844 16.894531 30.574219 C 17.128906 30.476562 17.128906 30.46875 16.980469 30.382812 C 16.757812 30.253906 15.597656 30.230469 14.4375 30.324219 Z M 14.4375 30.324219 "/>
<path style=" stroke:none;fill-rule:nonzero;fill:rgb(0%,0%,0%);fill-opacity:1;" d="M 13.078125 32.417969 C 12.710938 32.582031 12.667969 32.726562 12.847656 33.21875 C 13.089844 33.835938 13.457031 34.324219 13.90625 34.582031 C 14.265625 34.796875 14.386719 34.824219 15.039062 34.816406 C 15.855469 34.796875 16.757812 34.558594 17.839844 34.035156 C 18.46875 33.742188 19.507812 33.039062 19.507812 32.917969 C 19.507812 32.875 19.265625 32.855469 18.976562 32.875 C 18.632812 32.890625 17.773438 32.789062 16.65625 32.597656 C 14.722656 32.265625 13.570312 32.203125 13.078125 32.417969 Z M 13.078125 32.417969 "/>
</g>
</svg>
